# File created by Blade
# Date/Time:  Wed Jan 21 15:23:43 2015
# Frame Rate: 120.000 fps
#------------------------------------------------------
:FULLY-SPECIFIED
:DEGREES
830
root 10.452579 28.220055 -17.884488 -161.907854 2.285945 -193.075311
Spine 2.966083 3.421131 -17.498941
Head -19.360028 -4.182243 3.434634
LeftShoulder -3.916448 -26.741229 0.456410
LeftArm -17.117103 46.300189 -82.390094
LeftForeArm 26.650555 0.000000 50.928690
LeftHand 0.684967 -0.000000 -0.846295
LeftHandThumb1 -26.253704 0.000000 33.147579
RightShoulder -2.659390 -9.580916 5.370305
RightArm 18.392907 -32.818464 63.554365
RightForeArm -30.182732 -0.000000 23.740842
RightHand 4.490338 -0.000000 6.693122
RightHandThumb1 -24.326973 -0.000000 -32.862282
LeftUpLeg -55.060440 13.245304 -21.068525
LeftLeg 71.642270 -0.000000 -0.000000
LeftFoot -53.573593 16.317210 -14.309528
LeftToeBase 26.075250 -0.000000 -0.000000
RightUpLeg -20.029437 -41.328487 -39.260701
RightLeg -3.968319 -0.000000 0.000000
RightFoot 5.398322 -23.977484 15.644800
RightToeBase 25.045643 -0.000000 -0.000000
831
root 10.459371 28.222938 -17.894123 -161.899988 2.269820 -193.085517
Spine 2.920999 3.401966 -17.528113
Head -19.379666 -4.156894 3.424885
LeftShoulder -3.928948 -26.736865 0.447893
LeftArm -17.131801 46.273444 -82.380783
LeftForeArm 26.681953 -0.000000 50.903297
LeftHand 0.714527 -0.000000 -0.887184
LeftHandThumb1 -26.253704 0.000000 33.147579
RightShoulder -2.659164 -9.589842 5.384303
RightArm 18.370218 -32.790544 63.582069
RightForeArm -30.240613 -0.000000 23.729482
RightHand 4.566800 -0.000000 6.788944
RightHandThumb1 -24.326973 -0.000000 -32.862282
LeftUpLeg -55.034016 13.297907 -21.076137
LeftLeg 71.610793 -0.000000 -0.000000
LeftFoot -53.568678 16.287229 -14.237489
LeftToeBase 26.085098 -0.000000 -0.000000
RightUpLeg -19.993518 -41.319070 -39.289337
RightLeg -3.959322 -0.000000 0.000000
RightFoot 5.379211 -24.003176 15.565207
RightToeBase 25.320435 -0.000000 -0.000000
832
root 10.465200 28.225504 -17.902030 -161.876378 2.239213 -193.096203
Spine 2.870408 3.370344 -17.543849
Head -19.424732 -4.178257 3.382410
LeftShoulder -3.936145 -26.712766 0.427772
LeftArm -17.126042 46.256056 -82.356018
LeftForeArm 26.684003 -0.000000 50.890141
LeftHand 0.708650 -0.000000 -0.874388
LeftHandThumb1 -26.253704 0.000000 33.147579
RightShoulder -2.691170 -9.603213 5.408268
RightArm 18.383213 -32.797776 63.569163
RightForeArm -30.170172 -0.000000 23.754408
RightHand 4.489918 -0.000000 6.954498
RightHandThumb1 -24.326973 -0.000000 -32.862282
LeftUpLeg -55.025792 13.287741 -21.070817
LeftLeg 71.592890 -0.000000 -0.000000
LeftFoot -53.554747 16.263548 -14.206924
LeftToeBase 26.060670 -0.000000 -0.000000
RightUpLeg -19.950378 -41.324381 -39.315388
RightLeg -3.976210 -0.000000 0.000000
RightFoot 5.385702 -24.047805 15.557133
RightToeBase 25.368832 -0.000000 -0.000000
833
root 10.469320 28.227735 -17.908296 -161.847748 2.217107 -193.117207
Spine 2.822111 3.325177 -17.579100
Head -19.458579 -4.152387 3.369006
LeftShoulder -3.960464 -26.708518 0.427131
LeftArm -17.134868 46.241098 -82.344661
LeftForeArm 26.686693 -0.000000 50.882616
LeftHand 0.668632 -0.000000 -0.869322
LeftHandThumb1 -26.253704 0.000000 33.147579
RightShoulder -2.684474 -9.592716 5.445044
RightArm 18.353891 -32.794248 63.571232
RightForeArm -30.061412 -0.000000 23.757095
RightHand 4.372359 -0.000000 6.575153
RightHandThumb1 -24.326973 -0.000000 -32.862282
LeftUpLeg -55.030780 13.231182 -21.069477
LeftLeg 71.587804 -0.000000 -0.000000
LeftFoot -53.541072 16.247853 -14.263238
LeftToeBase 26.039541 -0.000000 -0.000000
RightUpLeg -19.934881 -41.343527 -39.342392
RightLeg -3.977823 -0.000000 0.000000
RightFoot 5.376844 -24.096762 15.580753
RightToeBase 25.295396 -0.000000 -0.000000
834
root 10.474156 28.227947 -17.916041 -161.820885 2.198592 -193.126270
Spine 2.771022 3.296921 -17.600152
Head -19.512129 -4.139929 3.362019
LeftShoulder -3.975768 -26.682948 0.424646
LeftArm -17.121659 46.229627 -82.321925
LeftForeArm 26.672233 -0.000000 50.860710
LeftHand 0.662724 -0.000000 -0.850890
LeftHandThumb1 -26.253704 0.000000 33.147579
RightShoulder -2.717483 -9.604822 5.476853
RightArm 18.377332 -32.823245 63.547375
RightForeArm -30.075105 -0.000000 23.729840
RightHand 4.367720 -0.000000 6.627799
RightHandThumb1 -24.326973 -0.000000 -32.862282
LeftUpLeg -55.037632 13.270416 -21.081751
LeftLeg 71.580592 -0.000000 -0.000000
LeftFoot -53.541537 16.194410 -14.195048
LeftToeBase 26.122958 -0.000000 -0.000000
RightUpLeg -19.910298 -41.353540 -39.361552
RightLeg -3.993271 -0.000000 0.000000
RightFoot 5.398412 -24.128887 15.603580
RightToeBase 25.301601 -0.000000 -0.000000
835
root 10.477442 28.227878 -17.922809 -161.797834 2.174761 -193.138572
Spine 2.738874 3.251891 -17.618086
Head -19.573065 -4.103376 3.340220
LeftShoulder -3.998879 -26.664993 0.419074
LeftArm -17.116687 46.192424 -82.289441
LeftForeArm 26.676252 -0.000000 50.869388
LeftHand 0.646255 0.000000 -0.880961
LeftHandThumb1 -26.253704 0.000000 33.147579
RightShoulder -2.731349 -9.616844 5.514368
RightArm 18.389135 -32.847064 63.511299
RightForeArm -30.105359 0.000000 23.727936
RightHand 4.377023 -0.000000 6.587501
RightHandThumb1 -24.326973 -0.000000 -32.862282
LeftUpLeg -55.040262 13.268882 -21.087321
LeftLeg 71.578115 -0.000000 -0.000000
LeftFoot -53.544763 16.186301 -14.164015
LeftToeBase 26.159935 -0.000000 -0.000000
RightUpLeg -19.881237 -41.374035 -39.383386
RightLeg -4.012171 -0.000000 0.000000
RightFoot 5.410746 -24.160592 15.598031
RightToeBase 25.614515 -0.000000 -0.000000
836
root 10.479156 28.227224 -17.928437 -161.771310 2.165565 -193.152172
Spine 2.700930 3.218320 -17.637479
Head -19.627329 -4.093522 3.317971
LeftShoulder -4.014899 -26.653953 0.417246
LeftArm -17.127564 46.170474 -82.275001
LeftForeArm 26.669882 -0.000000 50.869567
LeftHand 0.634582 0.000000 -0.842176
LeftHandThumb1 -26.253704 0.000000 33.147579
RightShoulder -2.726620 -9.645715 5.532374
RightArm 18.415326 -32.829903 63.500195
RightForeArm -30.122639 -0.000000 23.691722
RightHand 4.375978 -0.000000 6.601191
RightHandThumb1 -24.326973 -0.000000 -32.862282
LeftUpLeg -55.058266 13.275593 -21.105102
LeftLeg 71.585861 -0.000000 -0.000000
LeftFoot -53.519812 16.135359 -14.159938
LeftToeBase 26.048208 -0.000000 -0.000000
RightUpLeg -19.870958 -41.392935 -39.400764
RightLeg -4.030069 -0.000000 0.000000
RightFoot 5.442916 -24.170090 15.586301
RightToeBase 25.740160 -0.000000 -0.000000
837
root 10.479452 28.226052 -17.934870 -161.751519 2.163864 -193.172843
Spine 2.677161 3.196434 -17.668813
Head -19.698926 -4.066821 3.299785
LeftShoulder -4.036791 -26.654989 0.427358
LeftArm -17.140001 46.149310 -82.269186
LeftForeArm 26.660329 -0.000000 50.865482
LeftHand 0.639447 -0.000000 -0.824911
LeftHandThumb1 -26.253704 0.000000 33.147579
RightShoulder -2.734816 -9.634877 5.560123
RightArm 18.411871 -32.853389 63.488424
RightForeArm -30.109743 -0.000000 23.668902
RightHand 4.384881 -0.000000 6.534384
RightHandThumb1 -24.326973 -0.000000 -32.862282
LeftUpLeg -55.067221 13.290242 -21.131290
LeftLeg 71.593537 -0.000000 -0.000000
LeftFoot -53.520737 16.101406 -14.150121
LeftToeBase 26.073115 -0.000000 -0.000000
RightUpLeg -19.867348 -41.419709 -39.420351
RightLeg -4.049570 -0.000000 0.000000
RightFoot 5.464503 -24.232447 15.708426
RightToeBase 25.784168 -0.000000 -0.000000
838
root 10.479335 28.223344 -17.941756 -161.744403 2.157348 -193.181007
Spine 2.669911 3.187022 -17.672033
Head -19.772490 -4.046532 3.262023
LeftShoulder -4.044733 -26.637805 0.417859
LeftArm -17.123635 46.150235 -82.236604
LeftForeArm 26.619072 -0.000000 50.862500
LeftHand 0.621653 -0.000000 -0.778896
LeftHandThumb1 -26.253704 0.000000 33.147579
RightShoulder -2.739608 -9.641647 5.573728
RightArm 18.404655 -32.826571 63.495630
RightForeArm -30.100401 -0.000000 23.654325
RightHand 4.386159 -0.000000 6.529125
RightHandThumb1 -24.326973 -0.000000 -32.862282
LeftUpLeg -55.070855 13.312128 -21.145278
LeftLeg 71.611610 -0.000000 -0.000000
LeftFoot -53.522364 16.081396 -14.127334
LeftToeBase 26.063130 -0.000000 -0.000000
RightUpLeg -19.844947 -41.442260 -39.439360
RightLeg -4.071498 -0.000000 0.000000
RightFoot 5.502679 -24.249542 15.694683
RightToeBase 25.881118 -0.000000 -0.000000
839
root 10.479158 28.220273 -17.946773 -161.739134 2.164621 -193.182099
Spine 2.672438 3.185359 -17.673939
Head -19.852318 -4.028345 3.225011
LeftShoulder -4.051188 -26.644889 0.419035
LeftArm -17.135344 46.160445 -82.224951
LeftForeArm 26.576311 -0.000000 50.866104
LeftHand 0.605596 -0.000000 -0.748984
LeftHandThumb1 -26.253704 0.000000 33.147579
RightShoulder -2.734768 -9.633383 5.577157
RightArm 18.401919 -32.826277 63.504928
RightForeArm -30.104573 -0.000000 23.622702
RightHand 4.370478 0.000000 6.487767
RightHandThumb1 -24.326973 -0.000000 -32.862282
LeftUpLeg -55.080557 13.347080 -21.157007
LeftLeg 71.631430 -0.000000 -0.000000
LeftFoot -53.530718 16.045114 -14.115487
LeftToeBase 26.090628 -0.000000 -0.000000
RightUpLeg -19.838364 -41.449404 -39.444771
RightLeg -4.097431 -0.000000 0.000000
RightFoot 5.537344 -24.240787 15.621357
RightToeBase 26.206167 -0.000000 -0.000000
840
root 10.477062 28.216596 -17.951214 -161.730501 2.171972 -193.185726
Spine 2.674966 3.182494 -17.668081
Head -19.940807 -4.029176 3.188559
LeftShoulder -4.059656 -26.643939 0.409419
LeftArm -17.128255 46.154800 -82.192120
LeftForeArm 26.545384 0.000000 50.873338
LeftHand 0.629040 -0.000000 -0.751795
LeftHandThumb1 -26.253704 0.000000 33.147579
RightShoulder -2.727449 -9.637880 5.570121
RightArm 18.411308 -32.804074 63.520169
RightForeArm -30.130013 -0.000000 23.587388
RightHand 4.381372 -0.000000 6.469992
RightHandThumb1 -24.326973 -0.000000 -32.862282
LeftUpLeg -55.097250 13.376169 -21.175086
LeftLeg 71.656872 -0.000000 -0.000000
LeftFoot -53.546002 16.023310 -14.108548
LeftToeBase 26.093964 -0.000000 -0.000000
RightUpLeg -19.844847 -41.461946 -39.450159
RightLeg -4.107221 -0.000000 0.000000
RightFoot 5.579734 -24.264567 15.598372
RightToeBase 26.347539 -0.000000 -0.000000
841
root 10.473379 28.212804 -17.954801 -161.713010 2.191291 -193.193585
Spine 2.665980 3.184274 -17.674640
Head -20.024165 -4.000601 3.164064
LeftShoulder -4.079063 -26.666462 0.418751
LeftArm -17.154193 46.174501 -82.194663
LeftForeArm 26.545018 0.000000 50.886256
LeftHand 0.626224 -0.000000 -0.721002
LeftHandThumb1 -26.253704 0.000000 33.147579
RightShoulder -2.721049 -9.646576 5.566505
RightArm 18.443917 -32.818791 63.503101
RightForeArm -30.095339 0.000000 23.543072
RightHand 4.417612 -0.000000 6.540965
RightHandThumb1 -24.326973 -0.000000 -32.862282
LeftUpLeg -55.122758 13.397701 -21.201627
LeftLeg 71.682523 -0.000000 -0.000000
LeftFoot -53.548969 15.991021 -14.097813
LeftToeBase 26.080416 -0.000000 -0.000000
RightUpLeg -19.870044 -41.474821 -39.451602
RightLeg -4.118214 -0.000000 0.000000
RightFoot 5.617995 -24.305727 15.683350
RightToeBase 26.262529 -0.000000 -0.000000
842
root 10.469529 28.208639 -17.959280 -161.705293 2.198648 -193.204248
Spine 2.675478 3.209011 -17.678278
Head -20.114531 -4.008908 3.142651
LeftShoulder -4.071792 -26.651592 0.408551
LeftArm -17.115834 46.215264 -82.158952
LeftForeArm 26.450851 0.000000 50.900558
LeftHand 0.582371 -0.000000 -0.672523
LeftHandThumb1 -26.253704 0.000000 33.147579
RightShoulder -2.751521 -9.639846 5.573065
RightArm 18.463685 -32.820722 63.502336
RightForeArm -30.111870 -0.000000 23.515708
RightHand 4.408753 -0.000000 6.453779
RightHandThumb1 -24.326973 -0.000000 -32.862282
LeftUpLeg -55.136364 13.414117 -21.224400
LeftLeg 71.709231 -0.000000 -0.000000
LeftFoot -53.560246 15.972285 -14.085157
LeftToeBase 26.049350 -0.000000 -0.000000
RightUpLeg -19.877205 -41.503998 -39.460111
RightLeg -4.126784 -0.000000 0.000000
RightFoot 5.651764 -24.313812 15.679316
RightToeBase 26.379241 -0.000000 -0.000000
